<svg height="128" viewBox="0 0 128 128" width="128" xmlns="http://www.w3.org/2000/svg"><path d="m17.09 41.65c0 1.79-1.45 3.24-3.24 3.24s-3.24-1.45-3.24-3.24 1.45-3.24 3.24-3.24 3.24 1.45 3.24 3.24zm-6.23 0c0 1.66 1.33 2.99 2.99 2.99s2.99-1.33 2.99-2.99-1.33-2.99-2.99-2.99-2.99 1.33-2.99 2.99zm3.31 1.79c0 .22-.11.31-.33.31-.2 0-.31-.1-.31-.31v-3.62c0-.2.1-.31.31-.31s.33.1.33.31z" fill="#3c0"/><path d="m17.84 41.65 9.72-.02" fill="#3c0"/><path d="m17.84 41.65 7.31-.01" fill="none" stroke="#3c0" stroke-dasharray="0 0 12 12"/><path d="m27.56 41.63c-1.14.42-2.54 1.15-3.42 1.91l.68-1.9-.69-1.9c.87.76 2.29 1.48 3.42 1.9z" fill="#3c0"/></svg>