<svg height="128" viewBox="0 0 128 128" width="128" xmlns="http://www.w3.org/2000/svg"><path d="m67.04 4.65c0 1.79-1.45 3.24-3.24 3.24s-3.24-1.45-3.24-3.24 1.45-3.24 3.24-3.24 3.24 1.45 3.24 3.24zm-6.23 0c0 1.66 1.33 2.99 2.99 2.99s2.99-1.33 2.99-2.99-1.33-2.99-2.99-2.99-2.99 1.33-2.99 2.99zm4.09 1.49c.22 0 .29.08.29.26s-.09.26-.3.26h-2.25c-.21 0-.31-.1-.31-.3 0-.1.03-.16.08-.24.3-.42.67-.83 1.42-1.5.51-.46.63-.7.63-1.03 0-.38-.26-.64-.67-.64-.37 0-.61.19-.73.75-.02.11-.13.17-.26.17-.23 0-.35-.1-.35-.29 0-.03 0-.07.01-.09.15-.65.65-1.06 1.34-1.06.78 0 1.29.46 1.29 1.15 0 .56-.17.88-.81 1.43-.6.52-.9.82-1.15 1.13z" fill="#3c0"/><path d="m63.04 8.47-2.63 9.37" fill="#3c0"/><path d="m63.04 8.47-1.98 7.04" fill="none" stroke="#3c0" stroke-dasharray="0 0 12 12"/><path d="m60.41 17.84c-.1-1.21-.41-2.76-.91-3.81l1.65 1.18 2.02-.15c-.97.63-2.04 1.8-2.76 2.78z" fill="#3c0"/></svg>