<svg height="128" viewBox="0 0 128 128" width="128" xmlns="http://www.w3.org/2000/svg"><path d="m85 38.65c0 1.79-1.45 3.24-3.24 3.24s-3.24-1.45-3.24-3.24 1.45-3.24 3.24-3.24 3.24 1.45 3.24 3.24zm-6.23 0c0 1.66 1.33 2.99 2.99 2.99s2.99-1.33 2.99-2.99-1.33-2.99-2.99-2.99-2.99 1.33-2.99 2.99zm2.34-.13c0-.21.08-.28.27-.28.07 0 .16.01.24.01.53 0 .76-.24.76-.66 0-.38-.23-.61-.61-.61-.33 0-.53.13-.72.52-.04.09-.11.14-.23.14-.2 0-.36-.13-.36-.26 0-.06 0-.1.03-.16.23-.47.65-.74 1.27-.74.72 0 1.22.44 1.22 1.08 0 .46-.18.73-.59.92.49.17.74.51.74 1.04 0 .76-.56 1.27-1.4 1.27-.67 0-1.18-.28-1.45-.83-.03-.06-.04-.11-.04-.18 0-.13.17-.27.37-.27.12 0 .19.05.24.16.23.47.51.61.88.61.49 0 .79-.29.79-.76s-.29-.74-.85-.74c-.11 0-.2.01-.28.01-.21 0-.29-.08-.29-.27z" fill="#3c0"/><path d="m81.24 42.17-2.66 9.36" fill="#3c0"/><path d="m81.24 42.17-2 7.04" fill="none" stroke="#3c0" stroke-dasharray="0 0 12 12"/><path d="m78.58 51.53c-.09-1.21-.4-2.76-.89-3.81l1.64 1.18 2.02-.14c-.97.63-2.05 1.79-2.76 2.77z" fill="#3c0"/></svg>