<svg height="256" viewBox="0 0 512 256" width="512" xmlns="http://www.w3.org/2000/svg"><g fill="none" stroke-miterlimit="10" stroke-width="8"><path d="m256.28 112.14c.7-.07 1.4-.37 1.93-.91l44.55-44.38c5.85-5.85 9.07-13.61 9.07-21.87.02-8.26-3.17-16.02-9.02-21.87s-13.59-9.04-21.85-9.04-16.02 3.22-21.87 9.07l-3.05 3.05-3.1-3.1c-5.85-5.85-13.63-9.09-21.89-9.09s-16 3.22-21.82 9.04c-5.85 5.85-9.07 13.61-9.04 21.87 0 8.26 3.24 16 9.09 21.85l44.45 44.45c.52.52 1.19.84 1.87.92" stroke="#ddd"/><path d="m168.4 242.8c.7-.07 1.4-.37 1.93-.91l44.55-44.38c5.85-5.85 9.07-13.61 9.07-21.87.02-8.26-3.17-16.02-9.02-21.87s-13.59-9.04-21.85-9.04-16.02 3.22-21.87 9.07l-3.05 3.05-3.1-3.1c-5.85-5.85-13.63-9.09-21.89-9.09s-16 3.22-21.82 9.04c-5.85 5.85-9.07 13.61-9.04 21.87 0 8.26 3.24 16 9.09 21.85l44.45 44.45c.52.52 1.19.84 1.87.92" stroke="#ddd"/><path d="m142.81 23.11c-5.85-5.85-13.59-9.04-21.85-9.04s-16.02 3.22-21.87 9.07l-3.05 3.05-3.1-3.1c-5.85-5.85-13.63-9.09-21.89-9.09s-16 3.22-21.82 9.04c-5.85 5.85-9.07 13.61-9.04 21.87 0 8.26 3.24 16 9.09 21.85l44.45 44.45c.62.62 1.44.95 2.25.95s1.63-.31 2.25-.92l44.55-44.38c5.85-5.85 9.07-13.61 9.07-21.87.02-8.26-3.17-16.02-9.02-21.87z" stroke="#000"/><path d="m259.58 22.66c-.16.16-.33.32-.49.48l-3.05 3.05-3.1-3.1c-.15-.15-.29-.29-.44-.43" stroke="#000"/><path d="m244.48 17.07c-4.14-2-8.72-3.07-13.44-3.07-8.24 0-16 3.22-21.82 9.04-5.85 5.85-9.07 13.61-9.04 21.87 0 8.26 3.24 16 9.09 21.85l44.45 44.45c.62.62 1.44.95 2.25.95s1.63-.31 2.25-.92l44.55-44.38c5.85-5.85 9.07-13.61 9.07-21.87.02-8.26-3.17-16.02-9.02-21.87s-13.59-9.04-21.85-9.04c-6.38 0-12.46 1.92-17.59 5.48" stroke="#000" stroke-dasharray="0 0 9.81 9.81"/><path d="m416.28 112.14c.7-.07 1.4-.37 1.93-.91l44.55-44.38c5.85-5.85 9.07-13.61 9.07-21.87.02-8.26-3.17-16.02-9.02-21.87s-13.59-9.04-21.85-9.04-16.02 3.22-21.87 9.07l-3.05 3.05-3.1-3.1c-5.85-5.85-13.63-9.09-21.89-9.09s-16 3.22-21.82 9.04c-5.85 5.85-9.07 13.61-9.04 21.87 0 8.26 3.24 16 9.09 21.85l44.45 44.45c.52.52 1.19.84 1.87.92" stroke="#ddd"/><g stroke="#000"><path d="m423.45 19.5c-1.54 1.07-3 2.28-4.36 3.64l-3.05 3.05-3.1-3.1c-1.34-1.34-2.78-2.54-4.3-3.6"/><path d="m388.84 14.08c-7.41.52-14.32 3.66-19.62 8.96-5.85 5.85-9.07 13.61-9.04 21.87 0 8.26 3.24 16 9.09 21.85l44.45 44.45c.62.62 1.44.95 2.25.95s1.63-.31 2.25-.92l44.55-44.38c5.85-5.85 9.07-13.61 9.07-21.87.02-8.26-3.17-16.02-9.02-21.87s-13.59-9.04-21.85-9.04c-2.76 0-5.47.36-8.06 1.06" stroke-dasharray="0 0 20.91 20.91"/><path d="m189.47 144.93c-6.9.8-13.28 3.87-18.27 8.86l-3.05 3.05-3.1-3.1c-4.96-4.96-11.33-8.05-18.19-8.87"/><path d="m112.62 180.06c.95 6.55 3.99 12.58 8.77 17.36l44.45 44.45c.62.62 1.44.95 2.25.95s1.63-.31 2.25-.92l44.55-44.38c5.85-5.85 9.07-13.61 9.07-21.87.02-8.09-3.04-15.71-8.67-21.52" stroke-dasharray="0 0 56.74 56.74"/></g><path d="m341.27 237.64c.7-.07 1.4-.37 1.93-.91l44.55-44.38c5.85-5.85 9.07-13.61 9.07-21.87.02-8.26-3.17-16.02-9.02-21.87s-13.59-9.04-21.85-9.04-16.02 3.22-21.87 9.07l-3.05 3.05-3.1-3.1c-5.85-5.85-13.63-9.09-21.89-9.09s-16 3.22-21.82 9.04c-5.85 5.85-9.07 13.61-9.04 21.87 0 8.26 3.24 16 9.09 21.85l44.45 44.45c.52.52 1.19.84 1.87.92" stroke="#ddd"/></g></svg>