<svg height="1024" viewBox="0 0 512 1024" width="512" xmlns="http://www.w3.org/2000/svg"><g fill="none" stroke-miterlimit="10"><path d="m344.85 108.47c.7-.07 1.4-.37 1.93-.91l44.55-44.38c5.85-5.85 9.07-13.61 9.07-21.87.02-8.26-3.17-16.02-9.02-21.87s-13.59-9.04-21.85-9.04-16.02 3.22-21.87 9.07l-3.05 3.05-3.1-3.1c-5.85-5.85-13.63-9.09-21.89-9.09s-16 3.22-21.82 9.04c-5.85 5.85-9.07 13.61-9.04 21.87 0 8.26 3.24 16 9.09 21.85l44.45 44.45c.52.52 1.19.84 1.87.92" stroke="#ddd" stroke-width="8"/><path d="m111.61 342.41 235.47-235.46" stroke="#000" stroke-width="8"/><path d="m345.62 443.96c.7-.07 1.4-.37 1.93-.91l44.55-44.38c5.85-5.85 9.07-13.61 9.07-21.87.02-8.26-3.17-16.02-9.02-21.87s-13.59-9.04-21.85-9.04-16.02 3.22-21.87 9.07l-3.05 3.05-3.1-3.1c-5.85-5.85-13.63-9.09-21.89-9.09s-16 3.22-21.82 9.04-9.07 13.61-9.04 21.87c0 8.26 3.24 16 9.09 21.85l44.45 44.45c.52.52 1.19.84 1.87.92" stroke="#ddd" stroke-width="8"/><path d="m110.84 679.45 235.46-235.46" stroke="#ddd" stroke-width="8"/><path d="m347.55 443.06 44.55-44.38c5.85-5.85 9.07-13.61 9.07-21.87.02-8.26-3.17-16.02-9.02-21.87s-13.59-9.04-21.85-9.04-16.02 3.22-21.87 9.07l-3.05 3.05" stroke="#000" stroke-width="8"/><path d="m256.1 534.18 91.75-91.74" stroke="#000" stroke-width="8"/><path d="m110.84 1014.71 235.46-235.47" stroke="#ddd" stroke-width="8"/><path d="m345.62 779.22c.7-.07 1.4-.37 1.93-.91l44.55-44.38c5.85-5.85 9.07-13.61 9.07-21.87.02-8.26-3.17-16.02-9.02-21.87s-13.59-9.04-21.85-9.04-16.02 3.22-21.87 9.07l-3.05 3.05-3.1-3.1c-5.85-5.85-13.63-9.09-21.89-9.09s-16 3.22-21.82 9.04c-5.85 5.85-9.07 13.61-9.04 21.87 0 8.26 3.24 16 9.09 21.85l44.45 44.45c.52.52 1.19.84 1.87.92" stroke="#000" stroke-width="8"/><path d="m121.31 694.16 143.23-143.24" stroke="#00f" stroke-width="2"/></g><path d="m257.72 545.72 12.03 12.02-.01-12.02z" fill="#00f"/><path d="m137.63 1019.81 215.15-215.15" fill="none" stroke="#00f" stroke-miterlimit="10" stroke-width="2"/><path d="m345.96 799.45 12.03 12.03v-12.03z" fill="#00f"/></svg>