<?xml version="1.0" encoding="UTF-8"?>
<svg id="Layer_1" data-name="Layer 1" xmlns="http://www.w3.org/2000/svg" width="512" height="1024" viewBox="0 0 512 1024">
  <path d="m344.85,108.47c.7-.07,1.4-.37,1.93-.91l44.55-44.38c5.85-5.85,9.07-13.61,9.07-21.87.02-8.26-3.17-16.02-9.02-21.87-5.85-5.85-13.59-9.04-21.85-9.04s-16.02,3.22-21.87,9.07l-3.05,3.05-3.1-3.1c-5.85-5.85-13.63-9.09-21.89-9.09s-16,3.22-21.82,9.04c-5.85,5.85-9.07,13.61-9.04,21.87,0,8.26,3.24,16,9.09,21.85l44.45,44.45c.52.52,1.19.84,1.87.92" fill="none" stroke="#ddd" stroke-miterlimit="10" stroke-width="8"/>
  <line x1="111.61" y1="342.41" x2="347.08" y2="106.95" fill="none" stroke="#000" stroke-dasharray="0 333" stroke-miterlimit="10" stroke-width="8"/>
  <path d="m345.62,443.96c.7-.07,1.4-.37,1.93-.91l44.55-44.38c5.85-5.85,9.07-13.61,9.07-21.87.02-8.26-3.17-16.02-9.02-21.87-5.85-5.85-13.59-9.04-21.85-9.04s-16.02,3.22-21.87,9.07l-3.05,3.05-3.1-3.1c-5.85-5.85-13.63-9.09-21.89-9.09s-16,3.22-21.82,9.04c-5.85,5.85-9.07,13.61-9.04,21.87,0,8.26,3.24,16,9.09,21.85l44.45,44.45c.52.52,1.19.84,1.87.92" fill="none" stroke="#ddd" stroke-miterlimit="10" stroke-width="8"/>
  <line x1="110.84" y1="679.45" x2="346.3" y2="443.99" fill="none" stroke="#ddd" stroke-dasharray="0 333" stroke-miterlimit="10" stroke-width="8"/>
  <path d="m347.55,443.06l44.55-44.38c5.85-5.85,9.07-13.61,9.07-21.87.02-8.26-3.17-16.02-9.02-21.87-5.85-5.85-13.59-9.04-21.85-9.04s-16.02,3.22-21.87,9.07l-3.05,3.05" fill="none" stroke="#000" stroke-dasharray="0 164.33" stroke-miterlimit="10" stroke-width="8"/>
  <line x1="256.1" y1="534.18" x2="347.85" y2="442.44" fill="none" stroke="#000" stroke-dasharray="0 333" stroke-miterlimit="10" stroke-width="8"/>
  <line x1="110.84" y1="1014.71" x2="346.3" y2="779.24" fill="none" stroke="#ddd" stroke-dasharray="0 333" stroke-miterlimit="10" stroke-width="8"/>
  <path d="m345.62,779.22c.7-.07,1.4-.37,1.93-.91l44.55-44.38c5.85-5.85,9.07-13.61,9.07-21.87.02-8.26-3.17-16.02-9.02-21.87s-13.59-9.04-21.85-9.04-16.02,3.22-21.87,9.07l-3.05,3.05-3.1-3.1c-5.85-5.85-13.63-9.09-21.89-9.09s-16,3.22-21.82,9.04c-5.85,5.85-9.07,13.61-9.04,21.87,0,8.26,3.24,16,9.09,21.85l44.45,44.45c.52.52,1.19.84,1.87.92" fill="none" stroke="#000" stroke-miterlimit="10" stroke-width="8"/>
  <g>
    <line x1="121.31" y1="694.16" x2="264.54" y2="550.92" fill="none" stroke="blue" stroke-miterlimit="10" stroke-width="2"/>
    <polygon points="257.72 545.72 269.75 557.74 269.74 545.72 257.72 545.72" fill="blue" stroke-width="0"/>
  </g>
  <g>
    <line x1="137.63" y1="1019.81" x2="352.78" y2="804.66" fill="none" stroke="blue" stroke-miterlimit="10" stroke-width="2"/>
    <polygon points="345.96 799.45 357.99 811.48 357.99 799.45 345.96 799.45" fill="blue" stroke-width="0"/>
  </g>
</svg>