<svg height="256" viewBox="0 0 128 128" width="256" xmlns="http://www.w3.org/2000/svg"><g stroke="#000" stroke-miterlimit="10"><path d="m35 20h59.69v79.69" fill="none" stroke-width="10"/><circle cx="34.69" cy="19.69" fill="#ffe000" r="3.5"/><circle cx="54.69" cy="19.69" fill="#ffe000" r="3.5"/><circle cx="74.69" cy="19.69" fill="#ffe000" r="3.5"/><circle cx="94.69" cy="19.69" fill="#ffe000" r="3.5"/><circle cx="94.69" cy="39.69" fill="#ffe000" r="3.5"/><circle cx="94.69" cy="59.69" fill="#ffe000" r="3.5"/><circle cx="94.69" cy="79.69" fill="#ffe000" r="3.5"/><circle cx="94.69" cy="99.69" fill="#ffe000" r="3.5"/></g><path d="m35.11 12.11h-.69v-4.73l-.79.57v-.75l.79-.61h.69z"/><path d="m56.18 12.11h-3.24v-.58l1.94-2.29c.38-.44.62-.82.62-1.23 0-.58-.44-.86-.9-.86-.5 0-.89.3-.9.86h-.68c0-.91.72-1.48 1.58-1.48s1.58.57 1.58 1.51c0 .66-.48 1.18-.83 1.61l-1.52 1.84h2.33v.62z"/><path d="m74.12 8.96h.34c.73 0 1.04-.38 1.04-.98 0-.43-.35-.83-.9-.83s-.89.34-.9.79h-.67c0-.87.75-1.41 1.58-1.41.92 0 1.58.62 1.58 1.46 0 .57-.32 1.02-.82 1.26.54.22.9.66.9 1.36 0 .85-.63 1.57-1.61 1.57-1.06 0-1.65-.62-1.7-1.45h.67c.07.45.38.82 1.03.82.52 0 .92-.4.92-.93 0-.66-.38-1.05-1.12-1.05h-.34v-.62z"/><path d="m95.42 6.6-1.82 4h1.59v-1.62h.69v1.62h.5v.62h-.5v.9h-.69v-.9h-2.39v-.5l1.94-4.12z"/><path d="m103.35 39.57h-.63v-2.87h2.8v.69h-2.13v1.45c.18-.2.46-.36.88-.36 1.02 0 1.49.78 1.49 2.02 0 1.09-.56 1.78-1.62 1.78-.86 0-1.49-.6-1.54-1.36h.67c.1.46.42.74.87.74.57 0 .93-.33.93-1.16s-.27-1.33-.93-1.33c-.38 0-.63.19-.78.41z"/><path d="m103.77 59.13c.14-.09.37-.11.52-.11.88 0 1.45.7 1.45 1.62 0 .98-.65 1.65-1.59 1.65s-1.59-.66-1.59-1.62c0-.38.2-.87.38-1.28l1.14-2.69h.77l-1.06 2.43zm.38 2.53c.54 0 .9-.4.9-1.02s-.37-1.02-.9-1.02-.9.41-.9 1.02.36 1.02.9 1.02z"/><path d="m102.6 78.29v-1.59h3.1v.62l-1.75 4.89h-.73l1.76-4.89h-1.76v.97z"/><path d="m103.33 99.35c-.44-.22-.76-.68-.76-1.2 0-.92.75-1.52 1.58-1.52s1.58.6 1.58 1.52c0 .52-.33.98-.77 1.2.45.18.85.69.85 1.31 0 .98-.8 1.62-1.66 1.62s-1.66-.64-1.66-1.62c0-.62.41-1.13.84-1.31zm.82 2.3c.54 0 .98-.45.98-.99 0-.61-.51-.98-.98-.98s-.98.38-.98.98c0 .54.42.99.98.99zm0-2.59c.5 0 .9-.41.9-.91s-.4-.9-.9-.9-.9.4-.9.9.4.91.9.91z"/></svg>