<svg height="256" viewBox="0 0 128 128" width="256" xmlns="http://www.w3.org/2000/svg"><path d="m36 20h59.69v79.69" fill="none" stroke="#000" stroke-miterlimit="10" stroke-width="10"/><circle cx="34.69" cy="19.69" fill="#ff00e7" r="3.5"/><g stroke="#000"><circle cx="54.69" cy="19.69" fill="#ffe000" r="3.5" stroke-miterlimit="10"/><circle cx="74.69" cy="19.69" fill="#ffe000" r="3.5" stroke-miterlimit="10"/><circle cx="94.69" cy="19.69" fill="#ffe000" r="3.5" stroke-miterlimit="10"/><circle cx="94.69" cy="39.69" fill="#ffe000" r="3.5" stroke-miterlimit="10"/><circle cx="94.69" cy="59.69" fill="#ffe000" r="3.5" stroke-miterlimit="10"/><circle cx="94.69" cy="79.69" fill="#ffe000" r="3.5" stroke-miterlimit="10"/><circle cx="94.69" cy="99.69" fill="#ffe000" r="3.5" stroke-miterlimit="10"/></g><path d="m35.11 12.11h-.69v-4.73l-.79.57v-.75l.79-.61h.69z"/><path d="m56.18 12.11h-3.24v-.58l1.94-2.29c.38-.44.62-.82.62-1.23 0-.58-.44-.86-.9-.86-.5 0-.89.3-.9.86h-.68c0-.91.72-1.48 1.58-1.48s1.58.57 1.58 1.51c0 .66-.48 1.18-.83 1.61l-1.52 1.84h2.33v.62z"/><path d="m74.12 8.96h.34c.73 0 1.04-.38 1.04-.98 0-.43-.35-.83-.9-.83s-.89.34-.9.79h-.67c0-.87.75-1.41 1.58-1.41.92 0 1.58.62 1.58 1.46 0 .57-.32 1.02-.82 1.26.54.22.9.66.9 1.36 0 .85-.63 1.57-1.61 1.57-1.06 0-1.65-.62-1.7-1.45h.67c.07.45.38.82 1.03.82.52 0 .92-.4.92-.93 0-.66-.38-1.05-1.12-1.05h-.34v-.62z"/><path d="m95.42 6.6-1.82 4h1.59v-1.62h.69v1.62h.5v.62h-.5v.9h-.69v-.9h-2.39v-.5l1.94-4.12z"/><path d="m103.35 39.57h-.63v-2.87h2.8v.69h-2.13v1.45c.18-.2.46-.36.88-.36 1.02 0 1.49.78 1.49 2.02 0 1.09-.56 1.78-1.62 1.78-.86 0-1.49-.6-1.54-1.36h.67c.1.46.42.74.87.74.57 0 .93-.33.93-1.16s-.27-1.33-.93-1.33c-.38 0-.63.19-.78.41z"/><path d="m103.77 59.13c.14-.09.37-.11.52-.11.88 0 1.45.7 1.45 1.62 0 .98-.65 1.65-1.59 1.65s-1.59-.66-1.59-1.62c0-.38.2-.87.38-1.28l1.14-2.69h.77l-1.06 2.43zm.38 2.53c.54 0 .9-.4.9-1.02s-.37-1.02-.9-1.02-.9.41-.9 1.02.36 1.02.9 1.02z"/><path d="m102.6 78.29v-1.59h3.1v.62l-1.75 4.89h-.73l1.76-4.89h-1.76v.97z"/><path d="m103.33 99.35c-.44-.22-.76-.68-.76-1.2 0-.92.75-1.52 1.58-1.52s1.58.6 1.58 1.52c0 .52-.33.98-.77 1.2.45.18.85.69.85 1.31 0 .98-.8 1.62-1.66 1.62s-1.66-.64-1.66-1.62c0-.62.41-1.13.84-1.31zm.82 2.3c.54 0 .98-.45.98-.99 0-.61-.51-.98-.98-.98s-.98.38-.98.98c0 .54.42.99.98.99zm0-2.59c.5 0 .9-.41.9-.91s-.4-.9-.9-.9-.9.4-.9.9.4.91.9.91z"/><path d="m34.69 19.69 30.36 9.97" fill="none" stroke="#929dff" stroke-linecap="round" stroke-miterlimit="10"/><path d="m54.69 19.69 10.36 9.97" fill="none" stroke="#929dff" stroke-linecap="round" stroke-miterlimit="10"/><path d="m74.69 19.69-9.64 9.97" fill="none" stroke="#ff00e7" stroke-linecap="round" stroke-miterlimit="10"/><path d="m94.69 19.69-29.64 9.97" fill="none" stroke="#929dff" stroke-linecap="round" stroke-miterlimit="10"/><path d="m65.05 25.92c-.2 0-.36.16-.36.36v.75c0 .2.16.36.36.36s.36-.16.36-.36v-.75c0-.2-.16-.36-.36-.36zm-2.49.88c-.09 0-.19.04-.26.11-.14.14-.14.37 0 .51l.53.53c.07.07.16.11.26.11s.19-.04.26-.11c.14-.14.14-.37 0-.51l-.53-.53c-.07-.07-.16-.11-.26-.11zm4.99 0c-.09 0-.19.04-.26.11l-.53.53c-.14.14-.14.37 0 .51.07.07.16.11.26.11s.19-.04.26-.11l.53-.53c.14-.14.14-.37 0-.51-.07-.07-.16-.11-.26-.11zm-2.56 1.96c-.21-.02-.42.06-.57.21-.21.21-.27.51-.16.78l5.84 14.72c.1.26.34.43.62.46.28.02.54-.11.68-.35l2.45-4.14 4.85 4.85c.21.21.48.32.77.32s.57-.11.77-.32l.51-.51c.42-.43.42-1.12 0-1.54l-4.85-4.85 4.12-2.43c.24-.14.38-.4.36-.68s-.2-.52-.46-.62l-14.72-5.84c-.07-.03-.14-.04-.21-.05zm-3.31.53c-.2 0-.36.16-.36.36s.16.36.36.36h.75c.2 0 .36-.16.36-.36s-.16-.36-.36-.36zm3.25.2 14.72 5.84-4.12 2.43c-.2.11-.32.31-.35.53s.05.45.21.61l4.85 4.85c.14.14.14.37 0 .51l-.51.51c-.14.14-.38.14-.51 0l-4.85-4.85c-.14-.14-.32-.21-.51-.21-.03 0-.06 0-.09 0-.22.03-.42.16-.54.35l-2.45 4.14-5.84-14.72zm-1.83 1.77c-.09 0-.19.04-.26.11l-.53.53c-.14.14-.14.37 0 .51.07.07.16.11.26.11s.19-.04.26-.11l.53-.53c.14-.14.14-.37 0-.51-.07-.07-.16-.11-.26-.11z"/><path d="m64.92 29.49 14.72 5.84-4.12 2.43c-.2.11-.32.31-.35.53s.05.45.21.61l4.85 4.85c.14.14.14.37 0 .51l-.51.51c-.14.14-.38.14-.51 0l-4.85-4.85c-.14-.14-.32-.21-.51-.21-.03 0-.06 0-.09 0-.22.03-.42.16-.54.35l-2.45 4.14-5.84-14.72z" fill="#fff"/></svg>